<svg xmlns="http://www.w3.org/2000/svg" width="1200" height="630" viewBox="0 0 1200 630" fill="none">
  <defs>
    <linearGradient id="bg" x1="120" y1="40" x2="1080" y2="590" gradientUnits="userSpaceOnUse">
      <stop stop-color="#102232"/>
      <stop offset="1" stop-color="#071019"/>
    </linearGradient>
    <linearGradient id="accent" x1="160" y1="120" x2="540" y2="460" gradientUnits="userSpaceOnUse">
      <stop stop-color="#F5C657"/>
      <stop offset=".45" stop-color="#3EE8D1"/>
      <stop offset="1" stop-color="#178A9B"/>
    </linearGradient>
    <radialGradient id="glowA" cx="0" cy="0" r="1" gradientUnits="userSpaceOnUse" gradientTransform="translate(930 130) rotate(90) scale(180)">
      <stop stop-color="#3EE8D1" stop-opacity=".22"/>
      <stop offset="1" stop-color="#3EE8D1" stop-opacity="0"/>
    </radialGradient>
    <radialGradient id="glowB" cx="0" cy="0" r="1" gradientUnits="userSpaceOnUse" gradientTransform="translate(1060 470) rotate(90) scale(190)">
      <stop stop-color="#F5C657" stop-opacity=".18"/>
      <stop offset="1" stop-color="#F5C657" stop-opacity="0"/>
    </radialGradient>
  </defs>
  <rect width="1200" height="630" rx="36" fill="url(#bg)"/>
  <rect x="38" y="38" width="1124" height="554" rx="30" stroke="rgba(255,255,255,.12)" stroke-width="2"/>
  <circle cx="930" cy="130" r="180" fill="url(#glowA)"/>
  <circle cx="1060" cy="470" r="190" fill="url(#glowB)"/>
  <g opacity=".28">
    <path d="M763 480C834 423 916 409 1012 435C1068 450 1116 483 1150 520" stroke="#3EE8D1" stroke-width="2"/>
    <path d="M733 516C818 444 922 426 1048 459C1094 471 1130 490 1160 514" stroke="#F5C657" stroke-opacity=".55" stroke-width="2"/>
  </g>
  <g>
    <path d="M129 140L215 88L301 140V244L215 296L129 244V140Z" fill="#0C1823" stroke="url(#accent)" stroke-width="6"/>
    <path d="M161 237L214 134L271 237H243L215 186L190 237H161Z" fill="url(#accent)"/>
    <path d="M215 134V186L243 237H271L215 134Z" fill="#F5C657" fill-opacity=".78"/>
    <circle cx="215" cy="125" r="7" fill="#F5C657"/>
    <circle cx="145" cy="247" r="6" fill="#3EE8D1"/>
    <circle cx="285" cy="247" r="6" fill="#3EE8D1"/>
  </g>
  <text x="360" y="150" fill="#3EE8D1" font-family="Inter, Arial, sans-serif" font-size="22" font-weight="800" letter-spacing="4">AGENTIC FILIPINO</text>
  <text x="120" y="365" fill="#F4F7FB" font-family="Inter, Arial, sans-serif" font-size="78" font-weight="900" letter-spacing="-3">Hire Pre-Vetted</text>
  <text x="120" y="448" fill="#3EE8D1" font-family="Inter, Arial, sans-serif" font-size="78" font-weight="900" letter-spacing="-3">Filipino Talent</text>
  <text x="120" y="517" fill="#98A4B8" font-family="Inter, Arial, sans-serif" font-size="28">Founder-led matching for support, operations, customer care, and growth roles.</text>
  <g>
    <rect x="120" y="550" width="244" height="22" rx="11" fill="rgba(62,232,209,.12)" stroke="rgba(62,232,209,.25)"/>
    <text x="146" y="566" fill="#F4F7FB" font-family="Inter, Arial, sans-serif" font-size="18" font-weight="700">Free talent plan in 24-48 hours</text>
  </g>
</svg>
